<?xml version="1.0" encoding="UTF-8"?><svg id="Layer_2" xmlns="http://www.w3.org/2000/svg" width="397.09" height="130.26" viewBox="0 0 397.09 130.26"><defs><style>.cls-1{fill:none;}.cls-2{fill:#0072bc;}.cls-3{fill:#ffd81a;}.cls-4{fill:#f173ac;}.cls-5{fill:#00a76d;}.cls-6{fill:#ffffff;}</style></defs><g id="Layer_1-2"><g><g><g><rect class="cls-2" x="239.95" y="71.2" width="3.59" height="9.04"/><path class="cls-5" d="M325.17,107.97c-13.28,0-24.68-9.92-26.52-23.07l-.08-.57h3.62l.07,.42c1.74,11.27,11.59,19.77,22.92,19.77,5.77,0,11.35-2.18,15.72-6.14l.4-.36,2.13,2.74-.35,.31c-4.95,4.45-11.31,6.9-17.9,6.9Z"/><path class="cls-2" d="M298.68,76.94l.08-.57c1.87-13.11,13.27-22.99,26.51-22.99,6.53,0,12.65,2.31,17.68,6.67l.36,.31-2.12,2.73-.4-.34c-4.52-3.88-9.89-5.93-15.52-5.93-11.29,0-21.13,8.46-22.9,19.69l-.07,.42h-3.62Z"/><polygon class="cls-3" points="264.14 85.69 281.06 48.21 287.5 62.47 284.34 63.9 281.02 56.55 267.09 87.36 264.14 85.69"/><g><polygon class="cls-2" points="111.33 67.32 111.33 53.5 132.2 53.5 132.2 56.95 114.92 56.95 114.92 63.87 130.76 63.87 130.76 67.32 111.33 67.32"/><rect class="cls-2" x="113.84" y="75.86" width="15.84" height="3.45"/></g><polygon class="cls-4" points="144.29 102.97 144.29 64.86 172.95 91.68 172.95 66.84 176.54 66.84 176.54 99.96 147.89 73.1 147.89 102.97 144.29 102.97"/><path class="cls-5" d="M194.96,76.88c-3.94-2.2-9.18-6.04-9.18-13.99,0-8.54,8.31-15.76,18.15-15.76,5.99,0,11.31,2.06,16.73,6.48l.38,.31-2.06,2.67-.4-.32c-4.91-3.93-9.43-5.68-14.65-5.68-7.94,0-14.4,5.52-14.4,12.3,0,4.79,2.29,8.25,7.43,11.21l.5,.29-2.12,2.69-.37-.21Z"/><path class="cls-2" d="M203.56,102.37c-6.43,0-12.25-2.29-18.32-7.2l-.38-.31,2.06-2.67,.4,.32c5.57,4.42,10.58,6.4,16.25,6.4,8.4,0,14.97-5.56,14.97-12.66,0-3.57-1.33-6.48-4.08-8.87l-.33-.29,1.99-2.9,.42,.33c3.87,3.06,5.76,6.9,5.76,11.73,0,8.89-8.4,16.12-18.72,16.12Z"/><g><polygon class="cls-4" points="353.92 97.45 353.92 83.63 373.36 83.63 373.36 87.08 357.51 87.08 357.51 94 374.8 94 374.8 97.45 353.92 97.45"/><rect class="cls-4" x="356.44" y="71.64" width="15.84" height="3.45"/></g><path class="cls-4" d="M239.95,71.2v-21.59h5.61c7.16,0,12.17,4.44,12.17,10.8,0,5.57-3.68,9.63-9.61,10.59l-.58,.09v-3.37l.39-.09c3.74-.84,6.06-3.61,6.06-7.23,0-4.41-3.47-7.49-8.43-7.49h-2.02v18.29h-3.59Z"/><path class="cls-5" d="M57.63,69.93c0-.11-.02-.22-.03-.32-.05-.49-.13-.98-.22-1.46-.03-.19-.08-.37-.12-.56-.06-.29-.14-.57-.21-.85-.13-.49-.29-.98-.46-1.45-.01-.03-.02-.06-.03-.08-2.31-6.31-7.91-10.96-14.65-11.71-.01,0-.02,0-.04,0-.61-.07-1.23-.1-1.86-.1,0,0,0,0-.01,0h0c-4.78,0-9.12,1.97-12.3,5.14-.07,.07-.14,.13-.21,.2-.12,.13-.23,.27-.35,.4-2.99,3.26-4.84,7.65-4.84,12.47h0c0,.56,.03,1.11,.08,1.66,0,.11,.02,.22,.03,.32,.05,.49,.13,.98,.22,1.46,.03,.19,.08,.37,.12,.56,.06,.29,.14,.57,.21,.85,.13,.49,.29,.98,.46,1.46,.01,.03,.02,.06,.03,.08,.45,1.23,1.03,2.39,1.71,3.47l2.72-2.27c-.27-.47-.51-.95-.73-1.45-.16-.36-.29-.73-.42-1.1-.04-.12-.09-.24-.13-.37-.11-.36-.2-.73-.29-1.09-.03-.15-.08-.29-.11-.44-.07-.35-.12-.71-.16-1.06-.02-.17-.05-.33-.07-.5-.04-.42-.06-.85-.06-1.29,0-.1-.01-.19-.01-.29,0-4.14,1.55-7.83,4.09-10.49,2.54-2.66,6.07-4.28,10.03-4.28,.09,0,.17,.01,.26,.01,.42,0,.84,.02,1.25,.07,.07,0,.14,.02,.21,.03,.44,.05,.87,.12,1.3,.22,.03,0,.06,.02,.08,.02,.46,.11,.92,.23,1.37,.39,.02,0,.03,.01,.04,.02,.46,.16,.9,.34,1.34,.54,.03,.01,.05,.03,.08,.04,.42,.2,.82,.41,1.22,.65,.05,.03,.1,.06,.15,.09,.36,.22,.71,.46,1.05,.72,.07,.06,.15,.11,.22,.17,.3,.24,.6,.49,.89,.76,.09,.08,.18,.17,.27,.25,.26,.26,.51,.53,.75,.8,.98,1.13,1.79,2.41,2.39,3.82,.16,.36,.29,.73,.42,1.1,.04,.12,.09,.24,.13,.37,.11,.36,.2,.73,.29,1.09,.03,.15,.08,.29,.11,.44,.07,.35,.12,.71,.16,1.06,.02,.17,.05,.33,.07,.5,.04,.42,.06,.85,.06,1.29,0,.1,.01,.19,.01,.29,0,4.14-1.55,7.83-4.09,10.49-2.54,2.66-6.07,4.28-10.03,4.28-.09,0-.17-.01-.26-.01-.42,0-.84-.02-1.25-.07-.07,0-.14-.02-.21-.03-.44-.05-.87-.12-1.3-.22-.03,0-.06-.02-.08-.02-.46-.11-.92-.23-1.37-.39-.02,0-.03-.01-.04-.02-.46-.16-.9-.34-1.34-.54-.03-.01-.05-.03-.08-.04-.42-.2-.82-.41-1.22-.65-.05-.03-.1-.06-.15-.09-.36-.22-.71-.46-1.05-.72-.07-.06-.15-.11-.22-.17-.3-.24-.6-.49-.89-.76-.09-.08-.17-.16-.26-.25l-2.65,2.21c2.76,2.79,6.4,4.66,10.45,5.11,.01,0,.02,0,.04,0,.61,.07,1.23,.1,1.86,.1,0,0,0,0,.01,0h0c4.78,0,9.12-1.97,12.3-5.14,.07-.07,.14-.13,.21-.2,.12-.13,.23-.27,.35-.4,2.99-3.26,4.84-7.65,4.84-12.47h0c0-.56-.03-1.11-.08-1.66Z"/><rect class="cls-4" x="75.36" y="92.3" width="3.59" height="9.04"/><path class="cls-3" d="M80.97,54.58h-13.2v9.59h3.59v-6.29h9.61c10.77,0,18.01,6.25,18.01,15.56s-7.4,15.56-18.01,15.56h-5.61v3.3h3.59s2.02,0,2.02,0c12.8,0,21.74-7.76,21.74-18.86s-8.94-18.86-21.74-18.86Z"/></g><g><path class="cls-6" d="M69.9,32.56h-5.28v-10.28h.29v10h4.99v.27Z"/><path class="cls-6" d="M94.11,31.33h-5.51l-1.04,2.32h-.29l4.1-9.06,4.08,9.06h-.3l-1.04-2.32Zm-.13-.26l-2.62-5.83-2.62,5.83h5.25Z"/><path class="cls-6" d="M120.99,30.26c0,1.54-1.36,2.37-2.98,2.37h-2.53v-9.32h2.26c1.62,0,2.93,.8,2.93,2.32,0,1.31-.96,2-1.91,2.29,1.2,.22,2.23,.99,2.23,2.34Zm-3.35-2.42c1.73,0,2.72-.93,2.72-2.21,0-1.34-1.18-2.06-2.62-2.06h-1.97v4.27h1.87Zm-1.87,4.53h2.24c1.44,0,2.67-.75,2.67-2.11,0-1.26-.99-2.16-2.72-2.16h-2.19v4.27Z"/><path class="cls-6" d="M145.42,32.72c-2.58,0-4.69-2.14-4.69-4.75s2.11-4.75,4.69-4.75,4.69,2.15,4.69,4.75-2.11,4.75-4.69,4.75Zm0-9.24c-2.42,0-4.4,2.02-4.4,4.48s1.98,4.48,4.4,4.48,4.4-2.02,4.4-4.48-1.99-4.48-4.4-4.48Z"/><path class="cls-6" d="M173.64,29.22c1.57-.43,2.26-1.54,2.26-2.69,0-1.89-1.44-2.96-3.33-2.96h-1.75v10.08h-.29v-10.34h2.03c2.05,0,3.63,1.17,3.63,3.22,0,1.25-.78,2.34-2.14,2.8l2.95,4.32h-.32l-3.04-4.43Z"/><path class="cls-6" d="M202.6,31.33h-5.51l-1.04,2.32h-.29l4.1-9.06,4.08,9.06h-.3l-1.04-2.32Zm-.13-.26l-2.62-5.83-2.62,5.83h5.25Z"/><path class="cls-6" d="M228.95,23.38v.27h-4.03v10h-.29v-10h-4.03v-.27h8.36Z"/><path class="cls-6" d="M251.82,32.72c-2.58,0-4.69-2.14-4.69-4.75s2.11-4.75,4.69-4.75,4.69,2.15,4.69,4.75-2.11,4.75-4.69,4.75Zm0-9.24c-2.42,0-4.4,2.02-4.4,4.48s1.98,4.48,4.4,4.48,4.4-2.02,4.4-4.48-1.99-4.48-4.4-4.48Z"/><path class="cls-6" d="M280.04,29.22c1.57-.43,2.26-1.54,2.26-2.69,0-1.89-1.44-2.96-3.33-2.96h-1.75v10.08h-.29v-10.34h2.03c2.05,0,3.63,1.17,3.63,3.22,0,1.25-.78,2.34-2.14,2.8l2.95,4.32h-.32l-3.04-4.43Z"/><path class="cls-6" d="M303.7,33.65v-11.36h.29v11.36h-.29Z"/><path class="cls-6" d="M329.11,32.72c-2.58,0-4.69-2.14-4.69-4.75s2.11-4.75,4.69-4.75,4.69,2.15,4.69,4.75-2.11,4.75-4.69,4.75Zm0-9.24c-2.42,0-4.4,2.02-4.4,4.48s1.98,4.48,4.4,4.48,4.4-2.02,4.4-4.48-1.99-4.48-4.4-4.48Z"/></g></g><rect class="cls-1" width="397.09" height="130.26"/></g></g></svg>